{
.appVersion = "1264";
copyright = "Copyright 2015 Google Inc. All Rights Reserved.";
date = "2008-09-12 12:29:34 +0000";
designer = Google;
designerURL = "Christian Robertson";
disablesNiceNames = 1;
familyName = Turn;
fontMaster = (
{
ascender = 2146;
capHeight = 1456;
custom = Blank;
customParameters = (
{
name = typoAscender;
value = 2146;
},
{
name = typoDescender;
value = -555;
},
{
name = typoLineGap;
value = 0;
},
{
name = winAscent;
value = 2146;
},
{
name = winDescent;
value = 555;
},
{
name = hheaAscender;
value = 2146;
},
{
name = hheaDescender;
value = -555;
},
{
name = underlinePosition;
value = -200;
},
{
name = underlineThickness;
value = 100;
},
{
name = "Color Palettes";
value = (
(
"0,0,0,255",
"204,204,204,255",
"46,211,211,255",
"112,143,143,255",
"255,2,0,255",
"232,24,23,255",
"168,87,87,255",
"64,192,192,255",
"119,136,136,255",
"255,2,0,255",
"112,143,143,255",
"14,255,255,255",
"33,227,227,255",
"126,129,129,255",
"34,225,225,255",
"34,225,225,255",
"246,11,9,255",
"225,31,30,255",
"115,140,140,255",
"115,140,140,255",
"157,98,98,255",
"18,248,248,255",
"243,13,12,255",
"124,131,131,255",
"91,164,164,255",
"252,255,137,255"
)
);
}
);
descender = -555;
iconName = Bold;
id = "E890946B-05AE-4539-832B-10BBFB95E46A";
weightValue = 700;
widthValue = 5;
xHeight = 1082;
}
);
glyphs = (
{
glyphname = A;
lastChange = "2019-09-18 02:26:20 +0000";
layers = (
{
layerId = "E890946B-05AE-4539-832B-10BBFB95E46A";
paths = (
{
closed = 1;
nodes = (
"1228 0 LINE",
"760 1456 LINE",
"505 1456 LINE",
"28 0 LINE",
"324 0 LINE",
"410 304 LINE",
"847 304 LINE",
"932 0 LINE"
);
},
{
closed = 1;
nodes = (
"781 543 LINE",
"479 543 LINE",
"632 1079 LINE"
);
},
{
closed = 1;
nodes = (
"0 2145 LINE",
"1 2146 LINE",
"0 2146 LINE"
);
},
{
closed = 1;
nodes = (
"1229 2145 LINE",
"1229 2146 LINE",
"1228 2146 LINE"
);
},
{
closed = 1;
nodes = (
"0 -555 LINE",
"1 -555 LINE",
"0 -554 LINE"
);
},
{
closed = 1;
nodes = (
"1228 -555 LINE",
"1229 -555 LINE",
"1229 -554 LINE"
);
}
);
width = 1229;
},
{
associatedMasterId = "E890946B-05AE-4539-832B-10BBFB95E46A";
layerId = "A1CBD6CF-77A5-4567-A08B-6230C7179EAE";
name = "Color 2";
paths = (
{
closed = 1;
nodes = (
"0 -555 LINE",
"1229 -556 LINE",
"1229 2145 LINE",
"0 2146 LINE"
);
}
);
width = 1229;
},
{
associatedMasterId = "E890946B-05AE-4539-832B-10BBFB95E46A";
layerId = "4CF5F23A-70B9-473F-9120-8597EB3F3129";
name = "Color 0";
width = 1229;
}
);
note = A;
unicode = 0041;
},
{
glyphname = B;
lastChange = "2019-09-18 02:26:17 +0000";
layers = (
{
layerId = "E890946B-05AE-4539-832B-10BBFB95E46A";
paths = (
{
closed = 1;
nodes = (
"820 0 OFFCURVE",
"950 36 OFFCURVE",
"1039 108 CURVE SMOOTH",
"1128 180 OFFCURVE",
"1178 287 OFFCURVE",
"1178 427 CURVE SMOOTH",
"1178 500 OFFCURVE",
"1159 571 OFFCURVE",
"1119 629 CURVE SMOOTH",
"1078 687 OFFCURVE",
"1017 731 OFFCURVE",
"933 752 CURVE",
"1072 808 OFFCURVE",
"1144 922 OFFCURVE",
"1145 1058 CURVE SMOOTH",
"1145 1194 OFFCURVE",
"1093 1294 OFFCURVE",
"1001 1359 CURVE SMOOTH",
"909 1424 OFFCURVE",
"777 1456 OFFCURVE",
"618 1456 CURVE SMOOTH",
"129 1456 LINE",
"129 0 LINE",
"660 0 LINE SMOOTH"
);
},
{
closed = 1;
nodes = (
"826 641 OFFCURVE",
"898 562 OFFCURVE",
"897 429 CURVE SMOOTH",
"897 309 OFFCURVE",
"814 228 OFFCURVE",
"661 227 CURVE SMOOTH",
"411 227 LINE",
"411 642 LINE",
"673 642 LINE SMOOTH"
);
},
{
closed = 1;
nodes = (
"619 1227 LINE SMOOTH",
"778 1226 OFFCURVE",
"864 1171 OFFCURVE",
"864 1035 CURVE SMOOTH",
"863 911 OFFCURVE",
"776 846 OFFCURVE",
"620 845 CURVE SMOOTH",
"411 845 LINE",
"411 1227 LINE"
);
},
{
closed = 1;
nodes = (
"0 2145 LINE",
"1 2146 LINE",
"0 2146 LINE"
);
},
{
closed = 1;
nodes = (
"1229 2145 LINE",
"1229 2146 LINE",
"1228 2146 LINE"
);
},
{
closed = 1;
nodes = (
"0 -555 LINE",
"1 -555 LINE",
"0 -554 LINE"
);
},
{
closed = 1;
nodes = (
"1228 -555 LINE",
"1229 -555 LINE",
"1229 -554 LINE"
);
}
);
width = 1229;
},
{
associatedMasterId = "E890946B-05AE-4539-832B-10BBFB95E46A";
layerId = "693518C8-5B3C-4627-84BA-8FDA251397D6";
name = "Color 22";
paths = (
{
closed = 1;
nodes = (
"0 -556 LINE",
"1229 -555 LINE",
"1229 2146 LINE",
"0 2145 LINE"
);
}
);
width = 1229;
},
{
associatedMasterId = "E890946B-05AE-4539-832B-10BBFB95E46A";
layerId = "51434DD1-7726-4249-9BE1-6DCA5476EB71";
name = "Color 25";
width = 1229;
}
);
note = B;
unicode = 0042;
},
{
glyphname = C;
lastChange = "2019-09-18 02:26:15 +0000";
layers = (
{
layerId = "E890946B-05AE-4539-832B-10BBFB95E46A";
paths = (
{
closed = 1;
nodes = (
"852 281 OFFCURVE",
"763 208 OFFCURVE",
"616 208 CURVE SMOOTH",
"441 208 OFFCURVE",
"364 342 OFFCURVE",
"364 629 CURVE SMOOTH",
"364 827 LINE SMOOTH",
"364 960 OFFCURVE",
"384 1066 OFFCURVE",
"426 1138 CURVE SMOOTH",
"468 1210 OFFCURVE",
"531 1248 OFFCURVE",
"618 1248 CURVE SMOOTH",
"701 1248 OFFCURVE",
"759 1226 OFFCURVE",
"799 1183 CURVE SMOOTH",
"838 1139 OFFCURVE",
"858 1074 OFFCURVE",
"863 987 CURVE",
"1143 987 LINE",
"1130 1139 OFFCURVE",
"1079 1262 OFFCURVE",
"991 1346 CURVE SMOOTH",
"903 1430 OFFCURVE",
"778 1477 OFFCURVE",
"618 1477 CURVE SMOOTH",
"453 1477 OFFCURVE",
"318 1411 OFFCURVE",
"225 1296 CURVE SMOOTH",
"132 1181 OFFCURVE",
"79 1018 OFFCURVE",
"79 825 CURVE SMOOTH",
"79 629 LINE SMOOTH",
"79 437 OFFCURVE",
"128 274 OFFCURVE",
"219 160 CURVE SMOOTH",
"310 46 OFFCURVE",
"444 -21 OFFCURVE",
"616 -21 CURVE SMOOTH",
"768 -21 OFFCURVE",
"895 25 OFFCURVE",
"986 108 CURVE SMOOTH",
"1077 191 OFFCURVE",
"1133 309 OFFCURVE",
"1142 456 CURVE",
"861 456 LINE"
);
},
{
closed = 1;
nodes = (
"0 2145 LINE",
"1 2146 LINE",
"0 2146 LINE"
);
},
{
closed = 1;
nodes = (
"1229 2145 LINE",
"1229 2146 LINE",
"1228 2146 LINE"
);
},
{
closed = 1;
nodes = (
"0 -555 LINE",
"1 -555 LINE",
"0 -554 LINE"
);
},
{
closed = 1;
nodes = (
"1228 -555 LINE",
"1229 -555 LINE",
"1229 -554 LINE"
);
}
);
width = 1229;
},
{
associatedMasterId = "E890946B-05AE-4539-832B-10BBFB95E46A";
layerId = "38F15935-0B1C-464B-8350-94E3903542D4";
name = "Color 6";
paths = (
{
closed = 1;
nodes = (
"0 -556 LINE",
"1229 -555 LINE",
"1229 2146 LINE",
"0 2145 LINE"
);
}
);
width = 1229;
},
{
associatedMasterId = "E890946B-05AE-4539-832B-10BBFB95E46A";
layerId = "0564EA00-D279-4A9F-AE24-7D6A19B83BFE";
name = "Color 0";
width = 1229;
}
);
note = C;
unicode = 0043;
},
{
glyphname = D;
lastChange = "2019-09-18 02:26:13 +0000";
layers = (
{
layerId = "E890946B-05AE-4539-832B-10BBFB95E46A";
paths = (
{
closed = 1;
nodes = (
"701 0 OFFCURVE",
"858 69 OFFCURVE",
"967 187 CURVE SMOOTH",
"1076 305 OFFCURVE",
"1140 471 OFFCURVE",
"1140 667 CURVE SMOOTH",
"1140 787 LINE SMOOTH",
"1140 983 OFFCURVE",
"1077 1151 OFFCURVE",
"966 1269 CURVE SMOOTH",
"854 1387 OFFCURVE",
"695 1456 OFFCURVE",
"502 1456 CURVE SMOOTH",
"125 1456 LINE",
"125 0 LINE",
"516 0 LINE SMOOTH"
);
},
{
closed = 1;
nodes = (
"617 1228 OFFCURVE",
"704 1183 OFFCURVE",
"764 1106 CURVE SMOOTH",
"823 1029 OFFCURVE",
"853 920 OFFCURVE",
"853 789 CURVE SMOOTH",
"853 667 LINE SMOOTH",
"853 528 OFFCURVE",
"822 419 OFFCURVE",
"764 343 CURVE SMOOTH",
"706 267 OFFCURVE",
"621 226 OFFCURVE",
"516 226 CURVE SMOOTH",
"408 226 LINE",
"408 1228 LINE",
"502 1228 LINE SMOOTH"
);
},
{
closed = 1;
nodes = (
"0 2145 LINE",
"1 2146 LINE",
"0 2146 LINE"
);
},
{
closed = 1;
nodes = (
"1229 2145 LINE",
"1229 2146 LINE",
"1228 2146 LINE"
);
},
{
closed = 1;
nodes = (
"0 -555 LINE",
"1 -555 LINE",
"0 -554 LINE"
);
},
{
closed = 1;
nodes = (
"1228 -555 LINE",
"1229 -555 LINE",
"1229 -554 LINE"
);
}
);
width = 1229;
},
{
associatedMasterId = "E890946B-05AE-4539-832B-10BBFB95E46A";
layerId = "5F7C6DE7-05DB-439C-BC89-AC811B474172";
name = "Color 5";
paths = (
{
closed = 1;
nodes = (
"0 -556 LINE",
"1229 -555 LINE",
"1229 2146 LINE",
"0 2145 LINE"
);
}
);
width = 1229;
},
{
associatedMasterId = "E890946B-05AE-4539-832B-10BBFB95E46A";
layerId = "FE8BDED7-2272-4B7E-8754-9F6A9A19705F";
name = "Color 25";
width = 1229;
}
);
note = D;
unicode = 0044;
},
{
glyphname = E;
lastChange = "2019-09-18 02:26:10 +0000";
layers = (
{
layerId = "E890946B-05AE-4539-832B-10BBFB95E46A";
paths = (
{
closed = 1;
nodes = (
"429 860 LINE",
"429 1227 LINE",
"1125 1227 LINE",
"1125 1456 LINE",
"147 1456 LINE",
"147 0 LINE",
"1128 0 LINE",
"1128 227 LINE",
"429 227 LINE",
"429 638 LINE",
"1027 638 LINE",
"1027 860 LINE"
);
},
{
closed = 1;
nodes = (
"0 2145 LINE",
"1 2146 LINE",
"0 2146 LINE"
);
},
{
closed = 1;
nodes = (
"1229 2145 LINE",
"1229 2146 LINE",
"1228 2146 LINE"
);
},
{
closed = 1;
nodes = (
"0 -555 LINE",
"1 -555 LINE",
"0 -554 LINE"
);
},
{
closed = 1;
nodes = (
"1228 -555 LINE",
"1229 -555 LINE",
"1229 -554 LINE"
);
}
);
width = 1229;
},
{
associatedMasterId = "E890946B-05AE-4539-832B-10BBFB95E46A";
layerId = "DF9870B6-89C7-4A1D-9F77-B4CD0365FC6F";
name = "Color 8";
paths = (
{
closed = 1;
nodes = (
"0 -556 LINE",
"1229 -555 LINE",
"1229 2146 LINE",
"0 2145 LINE"
);
}
);
width = 1229;
},
{
associatedMasterId = "E890946B-05AE-4539-832B-10BBFB95E46A";
layerId = "5EB67183-0213-45EB-A8A0-DEEBB87CE4CA";
name = "Color 0";
width = 1229;
}
);
note = E;
unicode = 0045;
},
{
glyphname = F;
lastChange = "2019-09-18 02:26:07 +0000";
layers = (
{
layerId = "E890946B-05AE-4539-832B-10BBFB95E46A";
paths = (
{
closed = 1;
nodes = (
"431 831 LINE",
"431 1227 LINE",
"1133 1227 LINE",
"1133 1456 LINE",
"149 1456 LINE",
"149 0 LINE",
"431 0 LINE",
"431 603 LINE",
"1055 603 LINE",
"1055 831 LINE"
);
},
{
closed = 1;
nodes = (
"0 2145 LINE",
"1 2146 LINE",
"0 2146 LINE"
);
},
{
closed = 1;
nodes = (
"1229 2145 LINE",
"1229 2146 LINE",
"1228 2146 LINE"
);
},
{
closed = 1;
nodes = (
"0 -555 LINE",
"1 -555 LINE",
"0 -554 LINE"
);
},
{
closed = 1;
nodes = (
"1228 -555 LINE",
"1229 -555 LINE",
"1229 -554 LINE"
);
}
);
width = 1229;
},
{
associatedMasterId = "E890946B-05AE-4539-832B-10BBFB95E46A";
layerId = "1273156B-6E57-4D80-BBF1-DB38DBCD8B4C";
name = "Color 15";
paths = (
{
closed = 1;
nodes = (
"0 -555 LINE",
"1229 -556 LINE",
"1229 2145 LINE",
"0 2146 LINE"
);
}
);
width = 1229;
},
{
associatedMasterId = "E890946B-05AE-4539-832B-10BBFB95E46A";
layerId = "8439851B-B88E-42AA-833F-C33D7645E5B6";
name = "Color 0";
width = 1229;
}
);
note = F;
unicode = 0046;
},
{
glyphname = G;
lastChange = "2019-09-18 02:26:04 +0000";
layers = (
{
layerId = "E890946B-05AE-4539-832B-10BBFB95E46A";
paths = (
{
closed = 1;
nodes = (
"610 744 LINE",
"610 534 LINE",
"851 534 LINE",
"850 270 LINE",
"835 253 OFFCURVE",
"805 237 OFFCURVE",
"768 225 CURVE SMOOTH",
"731 213 OFFCURVE",
"687 206 OFFCURVE",
"643 206 CURVE SMOOTH",
"459 207 OFFCURVE",
"371 356 OFFCURVE",
"370 628 CURVE",
"370 828 LINE SMOOTH",
"370 965 OFFCURVE",
"399 1070 OFFCURVE",
"444 1141 CURVE SMOOTH",
"489 1212 OFFCURVE",
"552 1249 OFFCURVE",
"624 1249 CURVE SMOOTH",
"773 1249 OFFCURVE",
"838 1173 OFFCURVE",
"857 1024 CURVE",
"1131 1024 LINE",
"1116 1164 OFFCURVE",
"1070 1278 OFFCURVE",
"986 1356 CURVE SMOOTH",
"902 1434 OFFCURVE",
"781 1476 OFFCURVE",
"617 1476 CURVE SMOOTH",
"466 1476 OFFCURVE",
"335 1416 OFFCURVE",
"240 1304 CURVE SMOOTH",
"144 1192 OFFCURVE",
"87 1030 OFFCURVE",
"87 826 CURVE SMOOTH",
"87 628 LINE SMOOTH",
"87 424 OFFCURVE",
"140 262 OFFCURVE",
"235 151 CURVE SMOOTH",
"330 40 OFFCURVE",
"465 -20 OFFCURVE",
"630 -20 CURVE SMOOTH",
"753 -20 OFFCURVE",
"861 5 OFFCURVE",
"947 42 CURVE SMOOTH",
"1033 78 OFFCURVE",
"1096 126 OFFCURVE",
"1132 170 CURVE",
"1131 744 LINE"
);
},
{
closed = 1;
nodes = (
"0 2145 LINE",
"1 2146 LINE",
"0 2146 LINE"
);
},
{
closed = 1;
nodes = (
"1229 2145 LINE",
"1229 2146 LINE",
"1228 2146 LINE"
);
},
{
closed = 1;
nodes = (
"0 -555 LINE",
"1 -555 LINE",
"0 -554 LINE"
);
},
{
closed = 1;
nodes = (
"1228 -555 LINE",
"1229 -555 LINE",
"1229 -554 LINE"
);
}
);
width = 1229;
},
{
associatedMasterId = "E890946B-05AE-4539-832B-10BBFB95E46A";
layerId = "04EF1B30-B11A-4BD7-A3CA-7B24F42D3421";
name = "Color 9";
paths = (
{
closed = 1;
nodes = (
"0 -556 LINE",
"1229 -555 LINE",
"1229 2146 LINE",
"0 2145 LINE"
);
}
);
width = 1229;
},
{
associatedMasterId = "E890946B-05AE-4539-832B-10BBFB95E46A";
layerId = "526E1C84-ECFA-4BB8-A646-9F5B6F3FB431";
name = "Color 25";
width = 1229;
}
);
note = G;
unicode = 0047;
},
{
glyphname = H;
lastChange = "2019-09-18 02:26:02 +0000";
layers = (
{
layerId = "E890946B-05AE-4539-832B-10BBFB95E46A";
paths = (
{
closed = 1;
nodes = (
"814 1456 LINE",
"814 859 LINE",
"402 859 LINE",
"402 1456 LINE",
"123 1456 LINE",
"123 0 LINE",
"402 0 LINE",
"402 631 LINE",
"814 631 LINE",
"814 0 LINE",
"1092 0 LINE",
"1092 1456 LINE"
);
},
{
closed = 1;
nodes = (
"0 2145 LINE",
"1 2146 LINE",
"0 2146 LINE"
);
},
{
closed = 1;
nodes = (
"1229 2145 LINE",
"1229 2146 LINE",
"1228 2146 LINE"
);
},
{
closed = 1;
nodes = (
"0 -555 LINE",
"1 -555 LINE",
"0 -554 LINE"
);
},
{
closed = 1;
nodes = (
"1228 -555 LINE",
"1229 -555 LINE",
"1229 -554 LINE"
);
}
);
width = 1229;
},
{
associatedMasterId = "E890946B-05AE-4539-832B-10BBFB95E46A";
layerId = "508E1AA8-B4F1-4549-997B-6EFA6C2D1824";
name = "Color 10";
paths = (
{
closed = 1;
nodes = (
"0 -556 LINE",
"1229 -555 LINE",
"1229 2146 LINE",
"0 2145 LINE"
);
}
);
width = 1229;
},
{
associatedMasterId = "E890946B-05AE-4539-832B-10BBFB95E46A";
layerId = "92D65643-7C2F-4388-82C2-FF57A8E312AC";
name = "Color 0";
width = 1229;
}
);
note = H;
unicode = 0048;
},
{
glyphname = I;
lastChange = "2019-09-18 02:25:59 +0000";
layers = (
{
layerId = "E890946B-05AE-4539-832B-10BBFB95E46A";
paths = (
{
closed = 1;
nodes = (
"470 1229 LINE",
"470 226 LINE",
"193 226 LINE",
"193 0 LINE",
"1035 0 LINE",
"1035 226 LINE",
"751 226 LINE",
"751 1229 LINE",
"1035 1229 LINE",
"1035 1456 LINE",
"193 1456 LINE",
"193 1229 LINE"
);
},
{
closed = 1;
nodes = (
"0 2145 LINE",
"1 2146 LINE",
"0 2146 LINE"
);
},
{
closed = 1;
nodes = (
"1229 2145 LINE",
"1229 2146 LINE",
"1228 2146 LINE"
);
},
{
closed = 1;
nodes = (
"0 -555 LINE",
"1 -555 LINE",
"0 -554 LINE"
);
},
{
closed = 1;
nodes = (
"1228 -555 LINE",
"1229 -555 LINE",
"1229 -554 LINE"
);
}
);
width = 1229;
},
{
associatedMasterId = "E890946B-05AE-4539-832B-10BBFB95E46A";
layerId = "4B319D02-F184-4F95-A709-F4E62F84A40D";
name = "Color 11";
paths = (
{
closed = 1;
nodes = (
"0 -556 LINE",
"1229 -555 LINE",
"1229 2146 LINE",
"0 2145 LINE"
);
}
);
width = 1229;
},
{
associatedMasterId = "E890946B-05AE-4539-832B-10BBFB95E46A";
layerId = "AF582A32-874C-41A3-A244-1C4CC7F13CC0";
name = "Color 0";
width = 1229;
}
);
note = I;
unicode = 0049;
},
{
glyphname = K;
lastChange = "2019-09-18 02:25:54 +0000";
layers = (
{
layerId = "E890946B-05AE-4539-832B-10BBFB95E46A";
paths = (
{
closed = 1;
nodes = (
"1259 0 LINE",
"751 812 LINE",
"1241 1456 LINE",
"897 1456 LINE",
"543 967 LINE",
"411 789 LINE",
"411 1456 LINE",
"129 1456 LINE",
"129 0 LINE",
"411 0 LINE",
"411 429 LINE",
"565 598 LINE",
"925 0 LINE"
);
},
{
closed = 1;
nodes = (
"0 2145 LINE",
"1 2146 LINE",
"0 2146 LINE"
);
},
{
closed = 1;
nodes = (
"1229 2145 LINE",
"1229 2146 LINE",
"1228 2146 LINE"
);
},
{
closed = 1;
nodes = (
"0 -555 LINE",
"1 -555 LINE",
"0 -554 LINE"
);
},
{
closed = 1;
nodes = (
"1228 -555 LINE",
"1229 -555 LINE",
"1229 -554 LINE"
);
}
);
width = 1229;
},
{
associatedMasterId = "E890946B-05AE-4539-832B-10BBFB95E46A";
layerId = "70F327A2-3833-4ABD-8C3B-9373120CD222";
name = "Color 13";
paths = (
{
closed = 1;
nodes = (
"0 -556 LINE",
"1229 -555 LINE",
"1229 2146 LINE",
"0 2145 LINE"
);
}
);
width = 1229;
},
{
associatedMasterId = "E890946B-05AE-4539-832B-10BBFB95E46A";
layerId = "BB2C2104-5A2E-46CB-BA94-0DB880966ACF";
name = "Color 0";
width = 1229;
}
);
note = K;
unicode = 004B;
},
{
glyphname = L;
lastChange = "2019-09-18 02:25:52 +0000";
layers = (
{
layerId = "E890946B-05AE-4539-832B-10BBFB95E46A";
paths = (
{
closed = 1;
nodes = (
"150 1456 LINE",
"150 0 LINE",
"1114 0 LINE",
"1114 227 LINE",
"432 227 LINE",
"432 1456 LINE"
);
},
{
closed = 1;
nodes = (
"0 2145 LINE",
"1 2146 LINE",
"0 2146 LINE"
);
},
{
closed = 1;
nodes = (
"1229 2145 LINE",
"1229 2146 LINE",
"1228 2146 LINE"
);
},
{
closed = 1;
nodes = (
"0 -555 LINE",
"1 -555 LINE",
"0 -554 LINE"
);
},
{
closed = 1;
nodes = (
"1228 -555 LINE",
"1229 -555 LINE",
"1229 -554 LINE"
);
}
);
width = 1229;
},
{
associatedMasterId = "E890946B-05AE-4539-832B-10BBFB95E46A";
layerId = "BCCD5CA3-2964-48EF-BBBE-7DB6295006BA";
name = "Color 12";
paths = (
{
closed = 1;
nodes = (
"0 -556 LINE",
"1229 -555 LINE",
"1229 2146 LINE",
"0 2145 LINE"
);
}
);
width = 1229;
},
{
associatedMasterId = "E890946B-05AE-4539-832B-10BBFB95E46A";
layerId = "8624D5AC-3BEC-4205-8F9A-900DFCB724AC";
name = "Color 0";
width = 1229;
}
);
note = L;
unicode = 004C;
},
{
glyphname = M;
lastChange = "2019-09-18 02:25:50 +0000";
layers = (
{
layerId = "E890946B-05AE-4539-832B-10BBFB95E46A";
paths = (
{
closed = 1;
nodes = (
"127 0 LINE",
"385 0 LINE",
"385 431 LINE",
"373 1085 LINE",
"544 480 LINE",
"683 480 LINE",
"874 1112 LINE",
"862 431 LINE",
"862 0 LINE",
"1120 0 LINE",
"1120 1456 LINE",
"771 1456 LINE",
"614 909 LINE",
"476 1456 LINE",
"127 1456 LINE"
);
},
{
closed = 1;
nodes = (
"0 2145 LINE",
"1 2146 LINE",
"0 2146 LINE"
);
},
{
closed = 1;
nodes = (
"1229 2145 LINE",
"1229 2146 LINE",
"1228 2146 LINE"
);
},
{
closed = 1;
nodes = (
"0 -555 LINE",
"1 -555 LINE",
"0 -554 LINE"
);
},
{
closed = 1;
nodes = (
"1228 -555 LINE",
"1229 -555 LINE",
"1229 -554 LINE"
);
}
);
width = 1229;
},
{
associatedMasterId = "E890946B-05AE-4539-832B-10BBFB95E46A";
layerId = "7157B85C-A6B4-43C4-A7DB-3FAF046BE1BC";
name = "Color 14";
paths = (
{
closed = 1;
nodes = (
"0 -556 LINE",
"1229 -555 LINE",
"1229 2146 LINE",
"0 2145 LINE"
);
}
);
width = 1229;
},
{
associatedMasterId = "E890946B-05AE-4539-832B-10BBFB95E46A";
layerId = "B3C3104B-0907-4294-B3DF-6B7A9C4CC07F";
name = "Color 0";
width = 1229;
}
);
note = M;
unicode = 004D;
},
{
glyphname = N;
lastChange = "2019-09-18 02:25:47 +0000";
layers = (
{
layerId = "E890946B-05AE-4539-832B-10BBFB95E46A";
paths = (
{
closed = 1;
nodes = (
"809 1456 LINE",
"808 521 LINE",
"406 1456 LINE",
"123 1456 LINE",
"123 0 LINE",
"406 0 LINE",
"406 939 LINE",
"811 0 LINE",
"1091 0 LINE",
"1091 1456 LINE"
);
},
{
closed = 1;
nodes = (
"0 2145 LINE",
"1 2146 LINE",
"0 2146 LINE"
);
},
{
closed = 1;
nodes = (
"1229 2145 LINE",
"1229 2146 LINE",
"1228 2146 LINE"
);
},
{
closed = 1;
nodes = (
"0 -555 LINE",
"1 -555 LINE",
"0 -554 LINE"
);
},
{
closed = 1;
nodes = (
"1228 -555 LINE",
"1229 -555 LINE",
"1229 -554 LINE"
);
}
);
width = 1229;
},
{
associatedMasterId = "E890946B-05AE-4539-832B-10BBFB95E46A";
layerId = "012DF24F-A022-40AD-A87F-6C2C98C83304";
name = "Color 4";
paths = (
{
closed = 1;
nodes = (
"0 -556 LINE",
"1229 -555 LINE",
"1229 2146 LINE",
"0 2145 LINE"
);
}
);
width = 1229;
},
{
associatedMasterId = "E890946B-05AE-4539-832B-10BBFB95E46A";
layerId = "4310ECBF-9A6F-4B40-91FB-2FB848E6E6C6";
name = "Color 25";
width = 1229;
}
);
note = N;
unicode = 004E;
},
{
glyphname = P;
lastChange = "2019-09-18 02:25:43 +0000";
layers = (
{
layerId = "E890946B-05AE-4539-832B-10BBFB95E46A";
paths = (
{
closed = 1;
nodes = (
"806 534 OFFCURVE",
"936 582 OFFCURVE",
"1026 663 CURVE SMOOTH",
"1116 743 OFFCURVE",
"1166 856 OFFCURVE",
"1166 987 CURVE SMOOTH",
"1166 1127 OFFCURVE",
"1116 1244 OFFCURVE",
"1026 1326 CURVE SMOOTH",
"936 1408 OFFCURVE",
"806 1456 OFFCURVE",
"647 1456 CURVE SMOOTH",
"149 1456 LINE",
"149 0 LINE",
"430 0 LINE",
"430 534 LINE",
"647 534 LINE SMOOTH"
);
},
{
closed = 1;
nodes = (
"647 1228 LINE SMOOTH",
"727 1228 OFFCURVE",
"785 1201 OFFCURVE",
"825 1157 CURVE SMOOTH",
"864 1113 OFFCURVE",
"883 1053 OFFCURVE",
"883 985 CURVE SMOOTH",
"883 926 OFFCURVE",
"864 870 OFFCURVE",
"825 829 CURVE SMOOTH",
"785 788 OFFCURVE",
"727 762 OFFCURVE",
"647 762 CURVE SMOOTH",
"430 762 LINE",
"430 1228 LINE"
);
},
{
closed = 1;
nodes = (
"0 2145 LINE",
"1 2146 LINE",
"0 2146 LINE"
);
},
{
closed = 1;
nodes = (
"1229 2145 LINE",
"1229 2146 LINE",
"1228 2146 LINE"
);
},
{
closed = 1;
nodes = (
"0 -555 LINE",
"1 -555 LINE",
"0 -554 LINE"
);
},
{
closed = 1;
nodes = (
"1228 -555 LINE",
"1229 -555 LINE",
"1229 -554 LINE"
);
}
);
width = 1229;
},
{
associatedMasterId = "E890946B-05AE-4539-832B-10BBFB95E46A";
layerId = "6E1F7746-1851-4397-BA23-5F5B210CC7ED";
name = "Color 16";
paths = (
{
closed = 1;
nodes = (
"0 -556 LINE",
"1229 -555 LINE",
"1229 2146 LINE",
"0 2145 LINE"
);
}
);
width = 1229;
},
{
associatedMasterId = "E890946B-05AE-4539-832B-10BBFB95E46A";
layerId = "5487E4F4-1831-458A-8B65-44F23E450A72";
name = "Color 25";
width = 1229;
}
);
note = P;
unicode = 0050;
},
{
glyphname = Q;
lastChange = "2019-09-18 02:25:38 +0000";
layers = (
{
layerId = "E890946B-05AE-4539-832B-10BBFB95E46A";
paths = (
{
closed = 1;
nodes = (
"1156 1017 OFFCURVE",
"1104 1178 OFFCURVE",
"1011 1293 CURVE SMOOTH",
"918 1408 OFFCURVE",
"781 1476 OFFCURVE",
"612 1476 CURVE SMOOTH",
"444 1476 OFFCURVE",
"313 1408 OFFCURVE",
"223 1293 CURVE SMOOTH",
"133 1178 OFFCURVE",
"85 1017 OFFCURVE",
"85 829 CURVE SMOOTH",
"85 577 LINE SMOOTH",
"85 418 OFFCURVE",
"133 270 OFFCURVE",
"223 160 CURVE SMOOTH",
"313 50 OFFCURVE",
"444 -20 OFFCURVE",
"612 -20 CURVE SMOOTH",
"664 -20 OFFCURVE",
"712 -13 OFFCURVE",
"759 -1 CURVE",
"1036 -257 LINE",
"1217 -96 LINE",
"976 122 LINE",
"1093 234 OFFCURVE",
"1155 398 OFFCURVE",
"1156 577 CURVE SMOOTH",
"1156 829 LINE SMOOTH"
);
},
{
closed = 1;
nodes = (
"871 486 OFFCURVE",
"852 395 OFFCURVE",
"811 326 CURVE SMOOTH",
"770 257 OFFCURVE",
"705 211 OFFCURVE",
"612 211 CURVE SMOOTH",
"520 211 OFFCURVE",
"459 258 OFFCURVE",
"422 327 CURVE SMOOTH",
"385 395 OFFCURVE",
"370 486 OFFCURVE",
"370 577 CURVE SMOOTH",
"370 831 LINE SMOOTH",
"370 951 OFFCURVE",
"385 1054 OFFCURVE",
"422 1127 CURVE SMOOTH",
"459 1199 OFFCURVE",
"520 1243 OFFCURVE",
"612 1243 CURVE SMOOTH",
"705 1243 OFFCURVE",
"770 1200 OFFCURVE",
"811 1127 CURVE SMOOTH",
"852 1054 OFFCURVE",
"871 951 OFFCURVE",
"871 831 CURVE SMOOTH",
"871 577 LINE SMOOTH"
);
},
{
closed = 1;
nodes = (
"0 2145 LINE",
"1 2146 LINE",
"0 2146 LINE"
);
},
{
closed = 1;
nodes = (
"1229 2145 LINE",
"1229 2146 LINE",
"1228 2146 LINE"
);
},
{
closed = 1;
nodes = (
"0 -555 LINE",
"1 -555 LINE",
"0 -554 LINE"
);
},
{
closed = 1;
nodes = (
"1228 -555 LINE",
"1229 -555 LINE",
"1229 -554 LINE"
);
}
);
width = 1229;
},
{
associatedMasterId = "E890946B-05AE-4539-832B-10BBFB95E46A";
layerId = "9BCDFC57-14FF-4EB3-9318-EF85066D89D0";
name = "Color 7";
paths = (
{
closed = 1;
nodes = (
"0 -556 LINE",
"1229 -555 LINE",
"1229 2146 LINE",
"0 2145 LINE"
);
}
);
width = 1229;
},
{
associatedMasterId = "E890946B-05AE-4539-832B-10BBFB95E46A";
layerId = "41BCF89B-4B37-4A2F-9ABC-EC07CD3E2525";
name = "Color 0";
width = 1229;
}
);
note = Q;
unicode = 0051;
},
{
glyphname = R;
lastChange = "2019-09-18 02:25:36 +0000";
layers = (
{
layerId = "E890946B-05AE-4539-832B-10BBFB95E46A";
paths = (
{
closed = 1;
nodes = (
"1200 0 LINE",
"1200 13 LINE",
"887 614 LINE",
"967 650 OFFCURVE",
"1033 699 OFFCURVE",
"1079 765 CURVE SMOOTH",
"1125 831 OFFCURVE",
"1150 913 OFFCURVE",
"1150 1017 CURVE SMOOTH",
"1150 1161 OFFCURVE",
"1098 1271 OFFCURVE",
"1006 1344 CURVE SMOOTH",
"913 1417 OFFCURVE",
"780 1456 OFFCURVE",
"619 1456 CURVE SMOOTH",
"131 1456 LINE",
"131 0 LINE",
"412 0 LINE",
"412 544 LINE",
"625 544 LINE",
"899 0 LINE"
);
},
{
closed = 1;
nodes = (
"619 1228 LINE SMOOTH",
"783 1228 OFFCURVE",
"868 1143 OFFCURVE",
"868 998 CURVE SMOOTH",
"868 858 OFFCURVE",
"779 772 OFFCURVE",
"620 772 CURVE SMOOTH",
"412 772 LINE",
"412 1228 LINE"
);
},
{
closed = 1;
nodes = (
"0 2145 LINE",
"1 2146 LINE",
"0 2146 LINE"
);
},
{
closed = 1;
nodes = (
"1229 2145 LINE",
"1229 2146 LINE",
"1228 2146 LINE"
);
},
{
closed = 1;
nodes = (
"0 -555 LINE",
"1 -555 LINE",
"0 -554 LINE"
);
},
{
closed = 1;
nodes = (
"1228 -555 LINE",
"1229 -555 LINE",
"1229 -554 LINE"
);
}
);
width = 1229;
},
{
associatedMasterId = "E890946B-05AE-4539-832B-10BBFB95E46A";
layerId = "EED5D533-DF71-4F88-959D-A4A1E5AEE769";
name = "Color 3";
paths = (
{
closed = 1;
nodes = (
"0 -556 LINE",
"1229 -555 LINE",
"1229 2146 LINE",
"0 2145 LINE"
);
}
);
width = 1229;
},
{
associatedMasterId = "E890946B-05AE-4539-832B-10BBFB95E46A";
layerId = "64983020-F44F-4F2A-81F2-7749AEF6410C";
name = "Color 0";
width = 1229;
}
);
note = R;
unicode = 0052;
},
{
glyphname = S;
lastChange = "2019-09-18 02:25:34 +0000";
layers = (
{
layerId = "E890946B-05AE-4539-832B-10BBFB95E46A";
paths = (
{
closed = 1;
nodes = (
"887 328 OFFCURVE",
"865 284 OFFCURVE",
"825 253 CURVE SMOOTH",
"785 222 OFFCURVE",
"727 204 OFFCURVE",
"652 204 CURVE SMOOTH",
"568 204 OFFCURVE",
"497 222 OFFCURVE",
"447 262 CURVE SMOOTH",
"397 302 OFFCURVE",
"368 364 OFFCURVE",
"365 452 CURVE",
"89 452 LINE",
"89 345 OFFCURVE",
"121 257 OFFCURVE",
"174 188 CURVE SMOOTH",
"226 119 OFFCURVE",
"300 67 OFFCURVE",
"384 32 CURVE SMOOTH",
"467 -3 OFFCURVE",
"560 -19 OFFCURVE",
"652 -19 CURVE SMOOTH",
"800 -19 OFFCURVE",
"928 17 OFFCURVE",
"1019 86 CURVE SMOOTH",
"1110 154 OFFCURVE",
"1164 254 OFFCURVE",
"1164 382 CURVE SMOOTH",
"1164 502 OFFCURVE",
"1117 600 OFFCURVE",
"1037 677 CURVE SMOOTH",
"956 753 OFFCURVE",
"841 808 OFFCURVE",
"708 847 CURVE SMOOTH",
"615 872 OFFCURVE",
"540 901 OFFCURVE",
"488 937 CURVE SMOOTH",
"436 972 OFFCURVE",
"408 1015 OFFCURVE",
"408 1070 CURVE SMOOTH",
"408 1122 OFFCURVE",
"429 1168 OFFCURVE",
"469 1201 CURVE SMOOTH",
"509 1233 OFFCURVE",
"567 1252 OFFCURVE",
"642 1252 CURVE SMOOTH",
"723 1252 OFFCURVE",
"784 1229 OFFCURVE",
"825 1190 CURVE SMOOTH",
"865 1150 OFFCURVE",
"885 1094 OFFCURVE",
"888 1029 CURVE",
"1162 1029 LINE",
"1162 1160 OFFCURVE",
"1109 1271 OFFCURVE",
"1018 1351 CURVE SMOOTH",
"927 1430 OFFCURVE",
"799 1476 OFFCURVE",
"647 1476 CURVE SMOOTH",
"500 1476 OFFCURVE",
"372 1437 OFFCURVE",
"280 1366 CURVE SMOOTH",
"188 1295 OFFCURVE",
"133 1194 OFFCURVE",
"133 1071 CURVE SMOOTH",
"133 944 OFFCURVE",
"190 848 OFFCURVE",
"278 775 CURVE SMOOTH",
"366 702 OFFCURVE",
"485 651 OFFCURVE",
"612 616 CURVE SMOOTH",
"716 588 OFFCURVE",
"784 556 OFFCURVE",
"828 517 CURVE SMOOTH",
"871 477 OFFCURVE",
"887 432 OFFCURVE",
"887 380 CURVE SMOOTH"
);
},
{
closed = 1;
nodes = (
"0 2145 LINE",
"1 2146 LINE",
"0 2146 LINE"
);
},
{
closed = 1;
nodes = (
"1229 2145 LINE",
"1229 2146 LINE",
"1228 2146 LINE"
);
},
{
closed = 1;
nodes = (
"0 -555 LINE",
"1 -555 LINE",
"0 -554 LINE"
);
},
{
closed = 1;
nodes = (
"1228 -555 LINE",
"1229 -555 LINE",
"1229 -554 LINE"
);
}
);
width = 1229;
},
{
associatedMasterId = "E890946B-05AE-4539-832B-10BBFB95E46A";
layerId = "D035F328-75E1-4B5C-BC85-5C597220994B";
name = "Color 17";
paths = (
{
closed = 1;
nodes = (
"0 -556 LINE",
"1229 -555 LINE",
"1229 2146 LINE",
"0 2145 LINE"
);
}
);
width = 1229;
},
{
associatedMasterId = "E890946B-05AE-4539-832B-10BBFB95E46A";
layerId = "DCDB91F8-606B-457A-AE5B-04A945D408D7";
name = "Color 25";
width = 1229;
}
);
note = S;
unicode = 0053;
},
{
glyphname = T;
lastChange = "2019-09-18 02:25:32 +0000";
layers = (
{
layerId = "E890946B-05AE-4539-832B-10BBFB95E46A";
paths = (
{
closed = 1;
nodes = (
"27 1456 LINE",
"27 1227 LINE",
"470 1227 LINE",
"470 0 LINE",
"752 0 LINE",
"752 1227 LINE",
"1201 1227 LINE",
"1201 1456 LINE"
);
},
{
closed = 1;
nodes = (
"0 2145 LINE",
"1 2146 LINE",
"0 2146 LINE"
);
},
{
closed = 1;
nodes = (
"1229 2145 LINE",
"1229 2146 LINE",
"1228 2146 LINE"
);
},
{
closed = 1;
nodes = (
"0 -555 LINE",
"1 -555 LINE",
"0 -554 LINE"
);
},
{
closed = 1;
nodes = (
"1228 -555 LINE",
"1229 -555 LINE",
"1229 -554 LINE"
);
}
);
width = 1229;
},
{
associatedMasterId = "E890946B-05AE-4539-832B-10BBFB95E46A";
layerId = "D9906206-E4DC-406E-934B-CBB1C01FC69B";
name = "Color 18";
paths = (
{
closed = 1;
nodes = (
"0 -556 LINE",
"1229 -555 LINE",
"1229 2146 LINE",
"0 2145 LINE"
);
}
);
width = 1229;
},
{
associatedMasterId = "E890946B-05AE-4539-832B-10BBFB95E46A";
layerId = "DBF11248-C9CB-4CB6-938A-F0421FA21650";
name = "Color 0";
width = 1229;
}
);
note = T;
unicode = 0054;
},
{
glyphname = V;
lastChange = "2019-09-18 02:25:28 +0000";
layers = (
{
layerId = "E890946B-05AE-4539-832B-10BBFB95E46A";
paths = (
{
closed = 1;
nodes = (
"31 1456 LINE",
"471 0 LINE",
"757 0 LINE",
"1198 1456 LINE",
"888 1456 LINE",
"613 407 LINE",
"341 1456 LINE"
);
},
{
closed = 1;
nodes = (
"0 2145 LINE",
"1 2146 LINE",
"0 2146 LINE"
);
},
{
closed = 1;
nodes = (
"1229 2145 LINE",
"1229 2146 LINE",
"1228 2146 LINE"
);
},
{
closed = 1;
nodes = (
"0 -555 LINE",
"1 -555 LINE",
"0 -554 LINE"
);
},
{
closed = 1;
nodes = (
"1228 -555 LINE",
"1229 -555 LINE",
"1229 -554 LINE"
);
}
);
width = 1229;
},
{
associatedMasterId = "E890946B-05AE-4539-832B-10BBFB95E46A";
layerId = "70392464-87D2-4617-BF05-7293D43C0998";
name = "Color 21";
paths = (
{
closed = 1;
nodes = (
"0 -556 LINE",
"1229 -555 LINE",
"1229 2146 LINE",
"0 2145 LINE"
);
}
);
width = 1229;
},
{
associatedMasterId = "E890946B-05AE-4539-832B-10BBFB95E46A";
layerId = "16D990C3-5562-4AD5-B93A-85E1D00F2D06";
name = "Color 0";
width = 1229;
}
);
note = V;
unicode = 0056;
},
{
glyphname = W;
lastChange = "2019-09-18 02:25:25 +0000";
layers = (
{
layerId = "E890946B-05AE-4539-832B-10BBFB95E46A";
paths = (
{
closed = 1;
nodes = (
"511 1456 LINE",
"387 585 LINE",
"283 1456 LINE",
"26 1456 LINE",
"226 0 LINE",
"480 0 LINE",
"613 860 LINE",
"751 0 LINE",
"1005 0 LINE",
"1207 1456 LINE",
"949 1456 LINE",
"843 579 LINE",
"712 1456 LINE"
);
},
{
closed = 1;
nodes = (
"0 2145 LINE",
"1 2146 LINE",
"0 2146 LINE"
);
},
{
closed = 1;
nodes = (
"1229 2145 LINE",
"1229 2146 LINE",
"1228 2146 LINE"
);
},
{
closed = 1;
nodes = (
"0 -555 LINE",
"1 -555 LINE",
"0 -554 LINE"
);
},
{
closed = 1;
nodes = (
"1228 -555 LINE",
"1229 -555 LINE",
"1229 -554 LINE"
);
}
);
width = 1229;
},
{
associatedMasterId = "E890946B-05AE-4539-832B-10BBFB95E46A";
layerId = "B6755AD2-C56A-4A99-8871-8A6DAE330C0B";
name = "Color 19";
paths = (
{
closed = 1;
nodes = (
"0 -556 LINE",
"1229 -555 LINE",
"1229 2146 LINE",
"0 2145 LINE"
);
}
);
width = 1229;
},
{
associatedMasterId = "E890946B-05AE-4539-832B-10BBFB95E46A";
layerId = "12170004-3CFF-45D4-9575-D4AC65B8AEB6";
name = "Color 0";
width = 1229;
}
);
note = W;
unicode = 0057;
},
{
glyphname = X;
lastChange = "2019-09-18 02:25:23 +0000";
layers = (
{
layerId = "E890946B-05AE-4539-832B-10BBFB95E46A";
paths = (
{
closed = 1;
nodes = (
"41 1456 LINE",
"450 734 LINE",
"30 0 LINE",
"362 0 LINE",
"628 530 LINE",
"895 0 LINE",
"1223 0 LINE",
"803 734 LINE",
"1213 1456 LINE",
"883 1456 LINE",
"624 934 LINE",
"369 1456 LINE"
);
},
{
closed = 1;
nodes = (
"0 2145 LINE",
"1 2146 LINE",
"0 2146 LINE"
);
},
{
closed = 1;
nodes = (
"1229 2145 LINE",
"1229 2146 LINE",
"1228 2146 LINE"
);
},
{
closed = 1;
nodes = (
"0 -555 LINE",
"1 -555 LINE",
"0 -554 LINE"
);
},
{
closed = 1;
nodes = (
"1228 -555 LINE",
"1229 -555 LINE",
"1229 -554 LINE"
);
}
);
width = 1229;
},
{
associatedMasterId = "E890946B-05AE-4539-832B-10BBFB95E46A";
layerId = "9804A793-1DDC-4FB5-A9EB-67D6D0E6F99B";
name = "Color 23";
paths = (
{
closed = 1;
nodes = (
"0 -556 LINE",
"1229 -555 LINE",
"1229 2146 LINE",
"0 2145 LINE"
);
}
);
width = 1229;
},
{
associatedMasterId = "E890946B-05AE-4539-832B-10BBFB95E46A";
layerId = "3537E2DD-B2CB-49BA-88F7-3B89F9EAB4C0";
name = "Color 0";
width = 1229;
}
);
note = X;
unicode = 0058;
},
{
glyphname = Y;
lastChange = "2019-09-18 02:25:20 +0000";
layers = (
{
layerId = "E890946B-05AE-4539-832B-10BBFB95E46A";
paths = (
{
closed = 1;
nodes = (
"33 1456 LINE",
"484 516 LINE",
"485 0 LINE",
"765 0 LINE",
"766 504 LINE",
"1224 1456 LINE",
"915 1456 LINE",
"628 785 LINE",
"341 1456 LINE"
);
},
{
closed = 1;
nodes = (
"0 2145 LINE",
"1 2146 LINE",
"0 2146 LINE"
);
},
{
closed = 1;
nodes = (
"1229 2145 LINE",
"1229 2146 LINE",
"1228 2146 LINE"
);
},
{
closed = 1;
nodes = (
"0 -555 LINE",
"1 -555 LINE",
"0 -554 LINE"
);
},
{
closed = 1;
nodes = (
"1228 -555 LINE",
"1229 -555 LINE",
"1229 -554 LINE"
);
}
);
width = 1229;
},
{
associatedMasterId = "E890946B-05AE-4539-832B-10BBFB95E46A";
layerId = "E822D824-0EE9-4141-8F86-B2DD7574BEBA";
name = "Color 20";
paths = (
{
closed = 1;
nodes = (
"0 -556 LINE",
"1229 -555 LINE",
"1229 2146 LINE",
"0 2145 LINE"
);
}
);
width = 1229;
},
{
associatedMasterId = "E890946B-05AE-4539-832B-10BBFB95E46A";
layerId = "2E0951EE-1458-4026-9CBB-C0D1871CC73C";
name = "Color 0";
width = 1229;
}
);
note = Y;
unicode = 0059;
},
{
glyphname = Z;
lastChange = "2019-09-18 02:25:17 +0000";
layers = (
{
layerId = "E890946B-05AE-4539-832B-10BBFB95E46A";
paths = (
{
closed = 1;
nodes = (
"1135 1456 LINE",
"91 1456 LINE",
"91 1227 LINE",
"795 1227 LINE",
"89 172 LINE",
"89 0 LINE",
"1153 0 LINE",
"1153 227 LINE",
"431 227 LINE",
"1136 1289 LINE"
);
},
{
closed = 1;
nodes = (
"0 2145 LINE",
"1 2146 LINE",
"0 2146 LINE"
);
},
{
closed = 1;
nodes = (
"1229 2145 LINE",
"1229 2146 LINE",
"1228 2146 LINE"
);
},
{
closed = 1;
nodes = (
"0 -555 LINE",
"1 -555 LINE",
"0 -554 LINE"
);
},
{
closed = 1;
nodes = (
"1228 -555 LINE",
"1229 -555 LINE",
"1229 -554 LINE"
);
}
);
width = 1229;
},
{
associatedMasterId = "E890946B-05AE-4539-832B-10BBFB95E46A";
layerId = "7AA0997B-C668-49FF-B411-3A51E4E8D164";
name = "Color 24";
paths = (
{
closed = 1;
nodes = (
"0 -556 LINE",
"1229 -555 LINE",
"1229 2146 LINE",
"0 2145 LINE"
);
}
);
width = 1229;
},
{
associatedMasterId = "E890946B-05AE-4539-832B-10BBFB95E46A";
layerId = "11BB616B-6A32-49E6-AC2C-A11DD1308B96";
name = "Color 0";
width = 1229;
}
);
note = Z;
unicode = 005A;
},
{
glyphname = zero;
lastChange = "2019-10-26 03:23:41 +0000";
layers = (
{
layerId = "E890946B-05AE-4539-832B-10BBFB95E46A";
paths = (
{
closed = 1;
nodes = (
"1228 0 LINE",
"760 1456 LINE",
"505 1456 LINE",
"28 0 LINE",
"324 0 LINE",
"410 304 LINE",
"847 304 LINE",
"932 0 LINE"
);
},
{
closed = 1;
nodes = (
"781 543 LINE",
"479 543 LINE",
"632 1079 LINE"
);
},
{
closed = 1;
nodes = (
"0 2145 LINE",
"1 2146 LINE",
"0 2146 LINE"
);
},
{
closed = 1;
nodes = (
"1229 2145 LINE",
"1229 2146 LINE",
"1228 2146 LINE"
);
},
{
closed = 1;
nodes = (
"0 -555 LINE",
"1 -555 LINE",
"0 -554 LINE"
);
},
{
closed = 1;
nodes = (
"1228 -555 LINE",
"1229 -555 LINE",
"1229 -554 LINE"
);
}
);
width = 1229;
},
{
associatedMasterId = "E890946B-05AE-4539-832B-10BBFB95E46A";
layerId = "A1CBD6CF-77A5-4567-A08B-6230C7179EAE";
name = "Color 1";
paths = (
{
closed = 1;
nodes = (
"0 -555 LINE",
"1229 -556 LINE",
"1229 2145 LINE",
"0 2146 LINE"
);
}
);
width = 1229;
}
);
note = A;
unicode = 0030;
},
{
glyphname = hyphen;
lastChange = "2019-09-18 02:25:14 +0000";
layers = (
{
layerId = "E890946B-05AE-4539-832B-10BBFB95E46A";
width = 1229;
},
{
associatedMasterId = "E890946B-05AE-4539-832B-10BBFB95E46A";
layerId = "025C90C2-3599-473D-85F4-C515FCCF8192";
name = "Color 1";
paths = (
{
closed = 1;
nodes = (
"229 742 LINE",
"229 495 LINE",
"970 495 LINE",
"970 742 LINE"
);
}
